<svg version="1.1" xmlns="http://www.w3.org/2000/svg" viewBox="0 0 837.7778116861979 1364.8889329698347" width="837.7778116861979" height="1364.8889329698347">
  <!-- svg-source:excalidraw -->
  
  <defs>
    <style class="style-fonts">
      @font-face {
        font-family: "Virgil";
        src: url("https://excalidraw.com/Virgil.woff2");
      }
      @font-face {
        font-family: "Cascadia";
        src: url("https://excalidraw.com/Cascadia.woff2");
      }
      @font-face {
        font-family: "Assistant";
        src: url("https://excalidraw.com/Assistant-Regular.woff2");
      }
    </style>
    
  </defs>
  <rect x="0" y="0" width="837.7778116861979" height="1364.8889329698347" fill="#ffffff"></rect><g stroke-linecap="round" transform="translate(122.00002034505212 10) rotate(0 352.8888956705729 672.4444664849174)"><path d="M32 0 C240.76 -1.63, 448.27 -2.71, 673.78 0 M32 0 C244.41 2.52, 456.14 2.25, 673.78 0 M673.78 0 C694.44 1.08, 704.02 9.69, 705.78 32 M673.78 0 C693.82 -1.35, 704.81 11.9, 705.78 32 M705.78 32 C705.01 375.8, 704.23 720.22, 705.78 1312.89 M705.78 32 C706.21 534.44, 706.34 1037.3, 705.78 1312.89 M705.78 1312.89 C706.64 1335.16, 693.35 1343.18, 673.78 1344.89 M705.78 1312.89 C705.59 1333.57, 696.47 1347.06, 673.78 1344.89 M673.78 1344.89 C478.47 1344.78, 282.09 1344.56, 32 1344.89 M673.78 1344.89 C443.12 1345.21, 211.91 1344.7, 32 1344.89 M32 1344.89 C12.54 1344.73, -1.95 1334.04, 0 1312.89 M32 1344.89 C10.64 1345.66, -0.65 1334.48, 0 1312.89 M0 1312.89 C-4.41 1032.34, -5.19 752.54, 0 32 M0 1312.89 C-3.82 1037.95, -3.65 762.95, 0 32 M0 32 C-1.47 9.72, 10.35 1.1, 32 0 M0 32 C0.04 12.24, 8.66 1.57, 32 0" stroke="#1e1e1e" stroke-width="2" fill="none"></path></g><g stroke-linecap="round" transform="translate(148.66661919487854 1261.9999525282115) rotate(0 327.55557590060766 39.55556233723962)"><path d="M19.78 0 C177.47 3.72, 333.79 3.84, 635.33 0 C649.3 0.66, 654.58 7.95, 655.11 19.78 C657.18 25.74, 654.54 39.85, 655.11 59.33 C655.67 72.03, 648.65 80.59, 635.33 79.11 C452.2 81.72, 269.35 79.36, 19.78 79.11 C7.81 79.2, -3.5 75.58, 0 59.33 C-0.74 50.46, -3.33 46.67, 0 19.78 C1.18 9.19, 5.34 -1.02, 19.78 0" stroke="none" stroke-width="0" fill="#a5d8ff"></path><path d="M19.78 0 C174.22 0.29, 329.56 0.22, 635.33 0 M19.78 0 C220.68 2.55, 420.76 2.13, 635.33 0 M635.33 0 C647.07 0.39, 656.15 5.29, 655.11 19.78 M635.33 0 C646.35 1.57, 653.95 4.44, 655.11 19.78 M655.11 19.78 C656.12 32.56, 653.09 48.18, 655.11 59.33 M655.11 19.78 C653.78 29.69, 654.57 41.26, 655.11 59.33 M655.11 59.33 C656.86 71.55, 649.26 80.87, 635.33 79.11 M655.11 59.33 C652.89 72.89, 648.47 79.12, 635.33 79.11 M635.33 79.11 C418.47 78.56, 201.95 78.79, 19.78 79.11 M635.33 79.11 C422.81 79.23, 209.49 79.21, 19.78 79.11 M19.78 79.11 C8.06 80.9, 0.88 74.02, 0 59.33 M19.78 79.11 C4.92 79.74, 0.38 71.53, 0 59.33 M0 59.33 C1.53 45.44, 2.17 33.33, 0 19.78 M0 59.33 C-0.57 45.48, 0.15 31.83, 0 19.78 M0 19.78 C-0.77 7.46, 7.79 -0.02, 19.78 0 M0 19.78 C-1.84 5.5, 5.38 0.72, 19.78 0" stroke="#1e1e1e" stroke-width="2" fill="none"></path></g><g transform="translate(443.9822277492948 1289.0555148654512) rotate(0 32.239967346191406 12.5)"><text x="32.239967346191406" y="0" font-family="Virgil, Segoe UI Emoji" font-size="20px" fill="#1e1e1e" text-anchor="middle" style="white-space: pre;" direction="ltr" dominant-baseline="text-before-edge">Footer</text></g><g stroke-linecap="round" transform="translate(168.22228325737865 1064.6666124131937) rotate(0 315.99999321831604 88.44443427191834)"><path d="M32 0 C162.33 -2.45, 292.43 -2.7, 600 0 M32 0 C157.57 0.09, 283.9 -0.59, 600 0 M600 0 C622.11 -0.88, 631.45 9.12, 632 32 M600 0 C619.74 -0.17, 633.36 10.01, 632 32 M632 32 C631.36 70.56, 634.86 112.64, 632 144.89 M632 32 C632.26 59.25, 631.99 87.59, 632 144.89 M632 144.89 C633.72 166.81, 622.44 176.98, 600 176.89 M632 144.89 C632.79 165.51, 620.83 177.83, 600 176.89 M600 176.89 C372.89 176.19, 146.44 177.05, 32 176.89 M600 176.89 C423.2 176.49, 247.18 176.27, 32 176.89 M32 176.89 C12.51 177.96, -0.58 165.21, 0 144.89 M32 176.89 C10.43 177.26, 1.86 166.6, 0 144.89 M0 144.89 C1.96 115.64, -0.35 92.1, 0 32 M0 144.89 C-1.41 109.1, 0 72.87, 0 32 M0 32 C1.49 10.55, 10.87 -0.07, 32 0 M0 32 C0.39 12.76, 10.06 0.36, 32 0" stroke="#1e1e1e" stroke-width="2" fill="none"></path></g><g stroke-linecap="round" transform="translate(631.3334486219617 1093.1111314561626) rotate(0 30.222201877170164 53.33336724175348)"><path d="M15.11 0 C27.79 -0.1, 36.43 -0.55, 45.33 0 M15.11 0 C22.63 -0.32, 30.18 0.68, 45.33 0 M45.33 0 C54.76 0.4, 59.67 3.44, 60.44 15.11 M45.33 0 C55.46 -0.56, 60.39 5.2, 60.44 15.11 M60.44 15.11 C61.84 40.84, 62.08 70.26, 60.44 91.56 M60.44 15.11 C61.36 37.07, 61.7 58.86, 60.44 91.56 M60.44 91.56 C60.42 103.13, 55.08 108.39, 45.33 106.67 M60.44 91.56 C58.64 100.34, 57.21 107.37, 45.33 106.67 M45.33 106.67 C35.09 107.88, 23.97 104.83, 15.11 106.67 M45.33 106.67 C35.8 106.26, 26.88 106.29, 15.11 106.67 M15.11 106.67 C6.39 105.09, 1.83 100.78, 0 91.56 M15.11 106.67 C4.31 106.13, 2.13 102.91, 0 91.56 M0 91.56 C0.44 63.54, -1.04 33.69, 0 15.11 M0 91.56 C0.06 71.89, 1.09 50.85, 0 15.11 M0 15.11 C1 4.86, 4.7 1.8, 15.11 0 M0 15.11 C-1.83 4.99, 3.97 0.39, 15.11 0" stroke="#1e1e1e" stroke-width="2" fill="none"></path></g><g stroke-linecap="round" transform="translate(713.3334350585935 1095.1111178927947) rotate(0 30.222201877170164 53.33336724175348)"><path d="M15.11 0 C21.28 -0.07, 29.28 0.47, 45.33 0 M15.11 0 C21.2 -0.33, 27.09 -0.05, 45.33 0 M45.33 0 C57.04 -1.89, 58.91 4.58, 60.44 15.11 M45.33 0 C54.12 -2.14, 62.22 5.06, 60.44 15.11 M60.44 15.11 C60.66 41.45, 60.89 67.58, 60.44 91.56 M60.44 15.11 C59.64 31.99, 60.62 50.41, 60.44 91.56 M60.44 91.56 C58.54 102.04, 57.06 107.06, 45.33 106.67 M60.44 91.56 C61.69 103.86, 56.24 106.56, 45.33 106.67 M45.33 106.67 C36.88 106.34, 32.99 107.25, 15.11 106.67 M45.33 106.67 C34.57 106.9, 23.08 106.8, 15.11 106.67 M15.11 106.67 C4.21 106.08, -0.2 100.72, 0 91.56 M15.11 106.67 C5.01 104.51, 1.26 100.22, 0 91.56 M0 91.56 C-0.4 66.56, -0.11 44.73, 0 15.11 M0 91.56 C-0.42 61.11, 0.14 32.98, 0 15.11 M0 15.11 C-1.81 3.76, 6.22 -0.81, 15.11 0 M0 15.11 C-0.09 4.03, 5.31 -1.4, 15.11 0" stroke="#1e1e1e" stroke-width="2" fill="none"></path></g><g stroke-linecap="round" transform="translate(199.55556233723945 1096.8889024522564) rotate(0 30.222201877170164 53.33336724175348)"><path d="M15.11 0 C24.33 1.17, 31.74 0.74, 45.33 0 M15.11 0 C24.63 -0.23, 34.08 1.09, 45.33 0 M45.33 0 C54.03 1, 61.13 4.3, 60.44 15.11 M45.33 0 C56.56 -0.21, 60.05 7.1, 60.44 15.11 M60.44 15.11 C60.77 33.84, 60.27 48.67, 60.44 91.56 M60.44 15.11 C60.71 46.16, 61.36 75.25, 60.44 91.56 M60.44 91.56 C61.5 100.72, 56.05 105.62, 45.33 106.67 M60.44 91.56 C59.77 103.55, 53.69 108.67, 45.33 106.67 M45.33 106.67 C39.15 107.02, 32.22 106.46, 15.11 106.67 M45.33 106.67 C35.97 105.72, 25.56 107.48, 15.11 106.67 M15.11 106.67 C4.26 108.45, -0.61 100.23, 0 91.56 M15.11 106.67 C5.26 107.97, -0.92 103.79, 0 91.56 M0 91.56 C0.33 69.27, -1.23 44.36, 0 15.11 M0 91.56 C1.47 69.56, 1.22 47, 0 15.11 M0 15.11 C0.19 6.3, 4.37 0, 15.11 0 M0 15.11 C-2.07 3.28, 2.94 2.06, 15.11 0" stroke="#1e1e1e" stroke-width="2" fill="none"></path></g><g stroke-linecap="round" transform="translate(376.66670057508674 1100.6666734483501) rotate(0 30.222201877170164 53.33336724175348)"><path d="M15.11 0 C27.38 0.8, 39.43 0.24, 45.33 0 M15.11 0 C21.86 1.07, 29.88 0.61, 45.33 0 M45.33 0 C56.09 -0.73, 61.45 4.86, 60.44 15.11 M45.33 0 C55.02 2.07, 58.62 4.99, 60.44 15.11 M60.44 15.11 C60.42 34.31, 62.48 55.02, 60.44 91.56 M60.44 15.11 C60.78 38.06, 60.83 61.11, 60.44 91.56 M60.44 91.56 C61.08 100.58, 54.82 108.33, 45.33 106.67 M60.44 91.56 C58.73 103.63, 54.11 108.04, 45.33 106.67 M45.33 106.67 C38.46 106.58, 29.16 108.54, 15.11 106.67 M45.33 106.67 C38.48 107.38, 29.58 107.31, 15.11 106.67 M15.11 106.67 C4.43 105.27, 0.19 102.76, 0 91.56 M15.11 106.67 C4.12 108.82, -0.1 102.47, 0 91.56 M0 91.56 C-1.18 73.79, -0.36 58.15, 0 15.11 M0 91.56 C-0.06 66.04, -0.5 40.42, 0 15.11 M0 15.11 C-0.67 5.04, 3.24 -1.53, 15.11 0 M0 15.11 C-2.1 7.1, 5.83 -1.86, 15.11 0" stroke="#1e1e1e" stroke-width="2" fill="none"></path></g><g stroke-linecap="round" transform="translate(457.7778116861979 1099.1110907660584) rotate(0 30.222201877170164 53.33336724175348)"><path d="M15.11 0 C22.26 1.21, 28.05 -2.01, 45.33 0 M15.11 0 C22.29 -0.51, 27.52 0.45, 45.33 0 M45.33 0 C53.43 1.62, 61.96 6.29, 60.44 15.11 M45.33 0 C55.91 -1.84, 59.76 3.32, 60.44 15.11 M60.44 15.11 C61.09 38.81, 59.31 59.72, 60.44 91.56 M60.44 15.11 C59.44 37.62, 59.21 62.59, 60.44 91.56 M60.44 91.56 C60.94 102.76, 55.34 107.83, 45.33 106.67 M60.44 91.56 C59.38 102.64, 56.22 108.91, 45.33 106.67 M45.33 106.67 C39.29 105.05, 30.75 107.61, 15.11 106.67 M45.33 106.67 C34.93 106.85, 27 105.71, 15.11 106.67 M15.11 106.67 C3.69 106.99, -0.3 103.45, 0 91.56 M15.11 106.67 C6.89 107.9, 0.85 100.06, 0 91.56 M0 91.56 C0.18 72.08, -1.76 55.07, 0 15.11 M0 91.56 C0.16 63.39, 1.01 33.83, 0 15.11 M0 15.11 C0.88 4.47, 5.72 -1.08, 15.11 0 M0 15.11 C0.6 3.92, 6.98 2.09, 15.11 0" stroke="#1e1e1e" stroke-width="2" fill="none"></path></g><g stroke-linecap="round" transform="translate(541.5555487738714 1094.8888821072044) rotate(0 30.222201877170164 53.33336724175348)"><path d="M15.11 0 C24.76 -1.99, 36.14 -0.15, 45.33 0 M15.11 0 C23.41 0.55, 30.68 0.99, 45.33 0 M45.33 0 C56.92 1.25, 60.88 3.44, 60.44 15.11 M45.33 0 C54.72 -1.72, 60.51 6.46, 60.44 15.11 M60.44 15.11 C58.9 34.35, 60.62 55.34, 60.44 91.56 M60.44 15.11 C59.55 32.37, 60.4 48.57, 60.44 91.56 M60.44 91.56 C60.38 102.8, 54.48 107.55, 45.33 106.67 M60.44 91.56 C61.26 103.88, 54.01 106.89, 45.33 106.67 M45.33 106.67 C34.9 107.22, 24.95 105.33, 15.11 106.67 M45.33 106.67 C38.47 105.98, 29.88 106.94, 15.11 106.67 M15.11 106.67 C4.73 108.49, 1.61 102.7, 0 91.56 M15.11 106.67 C5.89 105.09, -1.47 102.86, 0 91.56 M0 91.56 C-1.58 64.89, 1.38 37.59, 0 15.11 M0 91.56 C0.76 67.8, 0.74 42.99, 0 15.11 M0 15.11 C0.68 3.96, 5.56 -0.97, 15.11 0 M0 15.11 C1.94 7.13, 6.06 -0.88, 15.11 0" stroke="#1e1e1e" stroke-width="2" fill="none"></path></g><g stroke-linecap="round" transform="translate(285.33342149522565 1099.1111246744786) rotate(0 30.222201877170164 53.33336724175348)"><path d="M15.11 0 C26.97 0.3, 36.74 -1.06, 45.33 0 M15.11 0 C22.4 0.21, 31.4 -0.66, 45.33 0 M45.33 0 C56.41 -0.18, 60.1 6.83, 60.44 15.11 M45.33 0 C53.58 -0.04, 59.37 5.43, 60.44 15.11 M60.44 15.11 C62.29 46.32, 60.46 74.84, 60.44 91.56 M60.44 15.11 C61.33 44.04, 61.12 73.37, 60.44 91.56 M60.44 91.56 C59.86 103.3, 53.92 108.41, 45.33 106.67 M60.44 91.56 C59.15 103, 54.97 108.03, 45.33 106.67 M45.33 106.67 C36.46 108.46, 25.03 108.53, 15.11 106.67 M45.33 106.67 C38.33 107.85, 31.8 106.26, 15.11 106.67 M15.11 106.67 C5.23 107.8, -0.8 103.51, 0 91.56 M15.11 106.67 C4.94 107.51, -2.15 102.33, 0 91.56 M0 91.56 C0.24 65.55, 1.13 44.72, 0 15.11 M0 91.56 C-0.31 65.64, -0.74 38.46, 0 15.11 M0 15.11 C-1.8 3.51, 3.21 1.79, 15.11 0 M0 15.11 C0.79 3.18, 6.88 -0.54, 15.11 0" stroke="#1e1e1e" stroke-width="2" fill="none"></path></g><g transform="translate(386.0000610351561 1068.2222154405376) rotate(0 105.50990295410159 12.5)"><text x="0" y="0" font-family="Virgil, Segoe UI Emoji" font-size="20px" fill="#1e1e1e" text-anchor="start" style="white-space: pre;" direction="ltr" dominant-baseline="text-before-edge">Supported languages </text></g><g stroke-linecap="round" transform="translate(157.5555759006075 815.7777913411455) rotate(0 327.5555419921875 106.22222900390625)"><path d="M32 0 C205.53 -4.58, 379.08 -4.89, 623.11 0 C643.2 1.73, 658.07 8.84, 655.11 32 C654.44 75.05, 655.27 125.45, 655.11 180.44 C653.04 205.19, 644.88 209.48, 623.11 212.44 C407.11 214.4, 194.11 215.62, 32 212.44 C7.85 209.14, 3.39 198.91, 0 180.44 C-3.68 129.56, 3.04 76.66, 0 32 C1.99 8.24, 11.17 -0.57, 32 0" stroke="none" stroke-width="0" fill="#a5d8ff"></path><path d="M32 0 C160.3 1.43, 288.6 2.15, 623.11 0 M32 0 C224.17 1.06, 417.21 1.15, 623.11 0 M623.11 0 C645.96 -1.14, 654.62 10.43, 655.11 32 M623.11 0 C642.56 -0.78, 656.66 8.72, 655.11 32 M655.11 32 C657.8 70.21, 658.4 106.4, 655.11 180.44 M655.11 32 C655.47 74.23, 655.69 117.16, 655.11 180.44 M655.11 180.44 C656.71 201.23, 644.01 212.68, 623.11 212.44 M655.11 180.44 C653.58 202.16, 643.05 210.65, 623.11 212.44 M623.11 212.44 C473.24 213.92, 321.15 215.02, 32 212.44 M623.11 212.44 C467.24 212.03, 312.23 211.67, 32 212.44 M32 212.44 C9.38 211.31, 1.57 201.44, 0 180.44 M32 212.44 C12.83 210.8, -1.39 201.31, 0 180.44 M0 180.44 C1.58 147.86, 2.24 113.81, 0 32 M0 180.44 C-0.25 124.59, -1.59 66.24, 0 32 M0 32 C-1.47 12.01, 10.74 -0.5, 32 0 M0 32 C0.33 12.78, 10.9 1.18, 32 0" stroke="#1e1e1e" stroke-width="2" fill="none"></path></g><g transform="translate(220.66667344835082 859.3332926432288) rotate(0 109.55989837646484 25)"><text x="0" y="0" font-family="Virgil, Segoe UI Emoji" font-size="20px" fill="#1e1e1e" text-anchor="start" style="white-space: pre;" direction="ltr" dominant-baseline="text-before-edge">Extreme Cloud Hosting</text><text x="0" y="25" font-family="Virgil, Segoe UI Emoji" font-size="20px" fill="#1e1e1e" text-anchor="start" style="white-space: pre;" direction="ltr" dominant-baseline="text-before-edge"></text></g><g transform="translate(169.1110907660593 906.1391583451558) rotate(0 173.72915649414062 20.319372446888025)"><text x="0" y="0" font-family="Virgil, Segoe UI Emoji" font-size="10.836998638340283px" fill="#1e1e1e" text-anchor="start" style="white-space: pre;" direction="ltr" dominant-baseline="text-before-edge">Cloud hosting like you've never seen. Fast, efficient and scalable</text><text x="0" y="13.546248297925354" font-family="Virgil, Segoe UI Emoji" font-size="10.836998638340283px" fill="#1e1e1e" text-anchor="start" style="white-space: pre;" direction="ltr" dominant-baseline="text-before-edge"></text><text x="0" y="27.092496595850708" font-family="Virgil, Segoe UI Emoji" font-size="10.836998638340283px" fill="#1e1e1e" text-anchor="start" style="white-space: pre;" direction="ltr" dominant-baseline="text-before-edge"></text></g><g stroke-linecap="round" transform="translate(261.5555487738714 955.3333197699649) rotate(0 71.99998643663196 18.22223239474829)"><path d="M9.11 0 C53.86 -1.06, 100.53 -0.27, 134.89 0 M9.11 0 C34.84 0.46, 61.42 0.17, 134.89 0 M134.89 0 C140.66 -1.22, 145.39 3.43, 144 9.11 M134.89 0 C142.25 -0.98, 144.34 4.55, 144 9.11 M144 9.11 C144.81 13.38, 145.61 19.61, 144 27.33 M144 9.11 C143 15.96, 143.06 22.4, 144 27.33 M144 27.33 C145.92 31.62, 141.12 36.39, 134.89 36.44 M144 27.33 C143.52 32.41, 138.78 34.31, 134.89 36.44 M134.89 36.44 C93.42 35.53, 53.01 33.54, 9.11 36.44 M134.89 36.44 C88.77 35.5, 42.41 34.64, 9.11 36.44 M9.11 36.44 C4.23 36.58, 1.7 32.9, 0 27.33 M9.11 36.44 C4.42 34.34, 0.86 35.65, 0 27.33 M0 27.33 C0.95 22.75, 0.02 16.82, 0 9.11 M0 27.33 C0.63 21.69, -0.55 15.41, 0 9.11 M0 9.11 C0.31 4.78, 1.56 -1.41, 9.11 0 M0 9.11 C1.26 2.18, 1.69 0.39, 9.11 0" stroke="#1e1e1e" stroke-width="2" fill="none"></path></g><g transform="translate(282.305573357476 961.0555521647132) rotate(0 51.249961853027344 12.5)"><text x="51.249961853027344" y="0" font-family="Virgil, Segoe UI Emoji" font-size="20px" fill="#1e1e1e" text-anchor="middle" style="white-space: pre;" direction="ltr" dominant-baseline="text-before-edge">Read more</text></g><g stroke-linecap="round" transform="translate(601.1111450195311 861.9999864366316) rotate(0 80.44447157118066 67.55555894639755)"><path d="M32 0 C52.84 -0.57, 71.82 1.32, 128.89 0 M32 0 C61.42 0.54, 88.29 -0.14, 128.89 0 M128.89 0 C148.41 -1.51, 159.71 10.16, 160.89 32 M128.89 0 C147.97 -1.08, 161.77 11.28, 160.89 32 M160.89 32 C161.95 49.01, 161.19 67.86, 160.89 103.11 M160.89 32 C161.51 49.28, 161.36 65.39, 160.89 103.11 M160.89 103.11 C161.02 126.07, 149.72 134.41, 128.89 135.11 M160.89 103.11 C161.2 124.88, 148.49 134.71, 128.89 135.11 M128.89 135.11 C96.18 136.82, 62.25 134.74, 32 135.11 M128.89 135.11 C105.62 136.24, 81.02 135.16, 32 135.11 M32 135.11 C8.74 133.9, -1.38 126.43, 0 103.11 M32 135.11 C9.44 135.21, 0.93 122.94, 0 103.11 M0 103.11 C-0.71 78.35, -0.6 55.74, 0 32 M0 103.11 C0.99 77.91, -0.52 54.82, 0 32 M0 32 C-1.11 12.46, 9.07 -1.91, 32 0 M0 32 C0.54 11.31, 9.8 1.14, 32 0" stroke="#1e1e1e" stroke-width="2" fill="none"></path></g><g transform="translate(671.3333129882811 918.8888210720482) rotate(0 13.529983520507812 12.5)"><text x="0" y="0" font-family="Virgil, Segoe UI Emoji" font-size="20px" fill="#1e1e1e" text-anchor="start" style="white-space: pre;" direction="ltr" dominant-baseline="text-before-edge">img</text></g><g stroke-linecap="round" transform="translate(165.55558946397565 667.7777777777774) rotate(0 158.2222154405382 61.77776760525174)"><path d="M30.89 0 C91.69 1, 152.98 -1.46, 285.56 0 M30.89 0 C100.38 0.65, 168.82 0.72, 285.56 0 M285.56 0 C307.78 -0.26, 314.47 9.29, 316.44 30.89 M285.56 0 C304.13 0.07, 315.77 8.1, 316.44 30.89 M316.44 30.89 C315.28 45.16, 316.91 63.93, 316.44 92.67 M316.44 30.89 C316.5 49.07, 316.76 66.13, 316.44 92.67 M316.44 92.67 C316.04 111.44, 304.24 122.47, 285.56 123.56 M316.44 92.67 C315.12 111.18, 305.77 124.63, 285.56 123.56 M285.56 123.56 C196.92 123.18, 106.53 123.36, 30.89 123.56 M285.56 123.56 C194.97 126.33, 104.58 125.79, 30.89 123.56 M30.89 123.56 C11.14 124.99, 0.49 112.82, 0 92.67 M30.89 123.56 C11.72 125.15, 1.09 113.49, 0 92.67 M0 92.67 C-1.79 78.14, -1.03 66.7, 0 30.89 M0 92.67 C0.16 76.28, -0.36 61.03, 0 30.89 M0 30.89 C1.59 10.98, 9.71 1.09, 30.89 0 M0 30.89 C-1.5 9.89, 11.13 0.74, 30.89 0" stroke="#1e1e1e" stroke-width="2" fill="none"></path></g><g stroke-linecap="round" transform="translate(189.55556233723956 681.1111111111106) rotate(0 5.3333197699652715 4.0000067816840215)"><path d="M4.45 0.18 C5.4 0.12, 7 0.44, 8.01 0.92 C9.02 1.39, 10.16 2.27, 10.51 3.03 C10.85 3.78, 10.64 4.68, 10.08 5.42 C9.51 6.17, 8.16 7.14, 7.12 7.5 C6.08 7.87, 4.82 7.8, 3.83 7.64 C2.84 7.47, 1.86 7.1, 1.18 6.5 C0.51 5.89, -0.32 4.94, -0.23 4.01 C-0.13 3.08, 0.8 1.57, 1.74 0.91 C2.68 0.25, 4.87 0.18, 5.42 0.05 C5.96 -0.08, 5.05 0.14, 5 0.15 M5.38 0.64 C6.44 0.53, 7.47 0.41, 8.32 0.78 C9.18 1.15, 10.13 2.01, 10.51 2.84 C10.88 3.67, 11.07 4.97, 10.57 5.76 C10.07 6.54, 8.7 7.13, 7.51 7.54 C6.31 7.95, 4.45 8.37, 3.38 8.2 C2.31 8.03, 1.58 7.48, 1.06 6.53 C0.54 5.58, 0.22 3.46, 0.28 2.5 C0.33 1.53, 0.58 1.09, 1.38 0.73 C2.19 0.36, 4.51 0.38, 5.09 0.3 C5.66 0.22, 4.81 0.24, 4.83 0.23" stroke="#1e1e1e" stroke-width="2" fill="none"></path></g><g stroke-linecap="round" transform="translate(210.22226969401044 681.333346896701) rotate(0 5.3333197699652715 4.0000067816840215)"><path d="M5.54 -0.22 C6.67 -0.2, 8.1 0.43, 9.02 0.98 C9.93 1.53, 10.92 2.24, 11.04 3.09 C11.15 3.93, 10.46 5.19, 9.72 6.05 C8.99 6.91, 7.73 7.92, 6.63 8.25 C5.53 8.58, 4.17 8.41, 3.14 8.01 C2.11 7.62, 0.92 6.63, 0.47 5.87 C0.01 5.11, 0.1 4.26, 0.42 3.45 C0.75 2.63, 1.65 1.61, 2.44 0.97 C3.22 0.33, 4.59 -0.21, 5.12 -0.4 C5.64 -0.59, 5.48 -0.21, 5.59 -0.15 M5.77 -0.02 C7 -0.07, 8.94 0.12, 9.65 0.64 C10.35 1.16, 10.06 2.25, 9.98 3.09 C9.9 3.93, 9.7 4.94, 9.17 5.66 C8.63 6.37, 7.68 6.99, 6.76 7.41 C5.85 7.82, 4.83 8.52, 3.7 8.15 C2.57 7.78, 0.64 6.01, -0.01 5.16 C-0.66 4.32, -0.49 3.79, -0.21 3.07 C0.07 2.35, 0.65 1.42, 1.67 0.83 C2.69 0.23, 5.29 -0.39, 5.9 -0.5 C6.51 -0.6, 5.42 0.02, 5.32 0.2" stroke="#1e1e1e" stroke-width="2" fill="none"></path></g><g stroke-linecap="round" transform="translate(233.5556030273437 680.6666734483501) rotate(0 5.3333197699652715 4.0000067816840215)"><path d="M4.67 0 C5.8 -0.19, 7.61 -0.2, 8.54 0.24 C9.47 0.69, 10.02 1.72, 10.25 2.67 C10.48 3.61, 10.36 5.06, 9.93 5.92 C9.5 6.77, 8.64 7.49, 7.67 7.82 C6.7 8.15, 5.14 8.08, 4.11 7.9 C3.07 7.73, 2.09 7.4, 1.47 6.76 C0.85 6.11, 0.5 4.98, 0.4 4.01 C0.3 3.04, 0.15 1.65, 0.85 0.95 C1.56 0.24, 3.92 0, 4.63 -0.21 C5.35 -0.42, 5.09 -0.4, 5.14 -0.31 M5.67 -0.42 C6.61 -0.59, 7.14 -0.13, 7.84 0.36 C8.54 0.85, 9.5 1.7, 9.86 2.53 C10.22 3.36, 10.3 4.42, 9.97 5.35 C9.65 6.28, 9.04 7.81, 7.92 8.12 C6.8 8.42, 4.48 7.5, 3.25 7.17 C2.02 6.85, 1.17 6.78, 0.56 6.18 C-0.05 5.59, -0.63 4.51, -0.4 3.59 C-0.17 2.66, 1.09 1.19, 1.94 0.61 C2.8 0.04, 4.25 0.19, 4.71 0.13 C5.17 0.07, 4.65 0.22, 4.72 0.26" stroke="#1e1e1e" stroke-width="2" fill="none"></path></g><g transform="translate(189.5556301540799 730.0000339084197) rotate(0 114.07989501953125 12.5)"><text x="0" y="0" font-family="Virgil, Segoe UI Emoji" font-size="20px" fill="#1e1e1e" text-anchor="start" style="white-space: pre;" direction="ltr" dominant-baseline="text-before-edge">install npm -g loruki -cli</text></g><g stroke-linecap="round" transform="translate(547.7777438693578 637.555541992187) rotate(0 130.6666734483506 30.66667344835068)"><path d="M15.33 0 C100.18 -0.21, 189.26 1.41, 246 0 M15.33 0 C65.5 -2.01, 115.79 -2.13, 246 0 M246 0 C256.54 0.65, 259.91 4.58, 261.33 15.33 M246 0 C258.09 1.45, 263.06 3.33, 261.33 15.33 M261.33 15.33 C260.61 27.02, 262.03 37.04, 261.33 46 M261.33 15.33 C261.29 24.8, 261.6 35.46, 261.33 46 M261.33 46 C260.85 57.38, 256.31 62.2, 246 61.33 M261.33 46 C261.75 56.08, 258.44 63.04, 246 61.33 M246 61.33 C179.88 61.62, 113.82 61.88, 15.33 61.33 M246 61.33 C193.3 61.73, 140.97 60.91, 15.33 61.33 M15.33 61.33 C3.82 60.39, 1.97 57.17, 0 46 M15.33 61.33 C7.26 60.46, 1.06 54.79, 0 46 M0 46 C2.02 35.08, -0.97 25.31, 0 15.33 M0 46 C0.87 38.41, 0.33 29.18, 0 15.33 M0 15.33 C-1.96 6.29, 5.32 -0.39, 15.33 0 M0 15.33 C-1.04 6.53, 6.87 -1.15, 15.33 0" stroke="#1e1e1e" stroke-width="2" fill="none"></path></g><g stroke-linecap="round" transform="translate(542.666659884983 716.0000610351558) rotate(0 132.88889567057277 30.66667344835068)"><path d="M15.33 0 C108.38 -1.07, 201.66 -0.93, 250.44 0 M15.33 0 C64.5 -2.24, 114.15 -1.99, 250.44 0 M250.44 0 C261.5 2, 267.77 6.33, 265.78 15.33 M250.44 0 C261.73 -0.99, 263.52 6.46, 265.78 15.33 M265.78 15.33 C266.95 26.39, 264.71 34.28, 265.78 46 M265.78 15.33 C265.53 23.23, 265.33 32.45, 265.78 46 M265.78 46 C265.41 57.17, 260.63 60.94, 250.44 61.33 M265.78 46 C265.89 57.7, 262.71 59.63, 250.44 61.33 M250.44 61.33 C187.49 63.22, 125.89 63.16, 15.33 61.33 M250.44 61.33 C198.2 61.79, 147.75 62.51, 15.33 61.33 M15.33 61.33 C4 59.47, -0.53 55.4, 0 46 M15.33 61.33 C6.46 60.3, -1.81 56.43, 0 46 M0 46 C-0.09 34.4, -1.31 25.53, 0 15.33 M0 46 C0.44 39.46, -0.57 32.59, 0 15.33 M0 15.33 C-0.69 7.04, 3.94 -0.36, 15.33 0 M0 15.33 C1.36 5.7, 6.09 -0.91, 15.33 0" stroke="#1e1e1e" stroke-width="2" fill="none"></path></g><g transform="translate(553.9999389648439 657.9999796549475) rotate(0 122.71650033089219 18.777787950303804)"><text x="0" y="0" font-family="Virgil, Segoe UI Emoji" font-size="15.022230360243045px" fill="#1e1e1e" text-anchor="start" style="white-space: pre;" direction="ltr" dominant-baseline="text-before-edge">Easy to use, cross platform CLI</text><text x="0" y="18.777787950303807" font-family="Virgil, Segoe UI Emoji" font-size="15.022230360243045px" fill="#1e1e1e" text-anchor="start" style="white-space: pre;" direction="ltr" dominant-baseline="text-before-edge"></text></g><g transform="translate(589.5555623372396 739.7777981228294) rotate(0 85.169921875 25)"><text x="0" y="0" font-family="Virgil, Segoe UI Emoji" font-size="20px" fill="#1e1e1e" text-anchor="start" style="white-space: pre;" direction="ltr" dominant-baseline="text-before-edge">Deploy in seconds</text><text x="0" y="25" font-family="Virgil, Segoe UI Emoji" font-size="20px" fill="#1e1e1e" text-anchor="start" style="white-space: pre;" direction="ltr" dominant-baseline="text-before-edge"></text></g><g stroke-linecap="round" transform="translate(621.555684407552 452.6666598849824) rotate(0 89.3333604600694 83.99997287326393)"><path d="M32 0 C59.29 -0.6, 86.74 -0.04, 146.67 0 M32 0 C67.68 -0.23, 104.1 0.11, 146.67 0 M146.67 0 C166.97 -1.14, 178.17 11.23, 178.67 32 M146.67 0 C165.81 -0.56, 180.19 11.05, 178.67 32 M178.67 32 C178.23 70.7, 178.94 110.1, 178.67 136 M178.67 32 C178.94 54.04, 178.92 77.56, 178.67 136 M178.67 136 C180.62 158.03, 167.28 166.98, 146.67 168 M178.67 136 C177.62 156.85, 169.18 166.25, 146.67 168 M146.67 168 C109.73 166.75, 71.49 169.2, 32 168 M146.67 168 C109.5 168.5, 73.37 168.01, 32 168 M32 168 C11.77 167.47, 0.77 156.54, 0 136 M32 168 C10.53 168.68, -1.74 159.23, 0 136 M0 136 C-0.51 111.29, -0.39 86.86, 0 32 M0 136 C1.66 97.89, 0.75 59.36, 0 32 M0 32 C-1.04 10.53, 12.54 -0.51, 32 0 M0 32 C-1.36 9.86, 12.57 2.22, 32 0" stroke="#1e1e1e" stroke-width="2" fill="none"></path></g><g stroke-linecap="round" transform="translate(188.00004747178815 454.66664632161434) rotate(0 89.3333604600694 79.11112467447923)"><path d="M32 0 C75.41 1.34, 121.55 2.38, 146.67 0 M32 0 C64.52 -0.59, 98.07 -1, 146.67 0 M146.67 0 C167.2 0.42, 179 12.4, 178.67 32 M146.67 0 C168.46 0.83, 176.41 10.22, 178.67 32 M178.67 32 C181.35 60.8, 180.2 92.66, 178.67 126.22 M178.67 32 C178.91 67.21, 179.39 102.51, 178.67 126.22 M178.67 126.22 C178.24 147.59, 167.17 158.42, 146.67 158.22 M178.67 126.22 C180.77 149.03, 169.68 156.67, 146.67 158.22 M146.67 158.22 C119.58 155.42, 93.46 156.9, 32 158.22 M146.67 158.22 C109.29 157.99, 70.66 156.82, 32 158.22 M32 158.22 C10.9 157.16, 0.09 146.76, 0 126.22 M32 158.22 C11.1 159.59, 1.96 147.57, 0 126.22 M0 126.22 C-0.38 89.97, 0 56.02, 0 32 M0 126.22 C-1.69 98.67, -0.81 69.53, 0 32 M0 32 C-0.51 11.61, 11.64 -0.09, 32 0 M0 32 C-1.54 10.46, 9.76 -2.13, 32 0" stroke="#1e1e1e" stroke-width="2" fill="none"></path></g><g stroke-linecap="round" transform="translate(405.11105007595484 450.44443766276015) rotate(0 89.3333604600694 82.66660902235247)"><path d="M32 0 C58.12 1.31, 86.17 -0.54, 146.67 0 M32 0 C75.87 -0.47, 118.9 -0.17, 146.67 0 M146.67 0 C168.33 1.73, 179.07 11.39, 178.67 32 M146.67 0 C165.75 -0.45, 179 12.38, 178.67 32 M178.67 32 C180.51 68.83, 181.23 103.04, 178.67 133.33 M178.67 32 C179.46 56.88, 178.61 83.17, 178.67 133.33 M178.67 133.33 C177.84 154.86, 169.83 166.62, 146.67 165.33 M178.67 133.33 C180.35 153.12, 166.34 165.8, 146.67 165.33 M146.67 165.33 C119.81 163.74, 95.45 165.6, 32 165.33 M146.67 165.33 C117.2 164.88, 89.35 165.18, 32 165.33 M32 165.33 C10.76 164.53, 0.38 155.86, 0 133.33 M32 165.33 C12.63 165.34, 1.57 153.97, 0 133.33 M0 133.33 C0.05 103.7, 0.27 77.36, 0 32 M0 133.33 C0.89 109.64, 0.66 88.09, 0 32 M0 32 C0.97 10.57, 9.32 -0.18, 32 0 M0 32 C-0.91 8.54, 10.79 1.03, 32 0" stroke="#1e1e1e" stroke-width="2" fill="none"></path></g><g stroke-linecap="round" transform="translate(226.88893636067706 474.0000067816838) rotate(0 38.22221544053821 7.555558946397582)"><path d="M3.78 0 C23.02 -1.42, 45.16 -1.04, 72.67 0 M3.78 0 C24.68 -0.13, 45.47 -0.28, 72.67 0 M72.67 0 C75.78 -0.6, 76.09 0.42, 76.44 3.78 M72.67 0 C76.39 -0.23, 76.12 2.2, 76.44 3.78 M76.44 3.78 C76.98 6.6, 77.27 8.11, 76.44 11.33 M76.44 3.78 C76.24 5.59, 76.59 7.29, 76.44 11.33 M76.44 11.33 C74.78 15.73, 73.95 15.71, 72.67 15.11 M76.44 11.33 C75.52 14.16, 73.55 16.19, 72.67 15.11 M72.67 15.11 C47.11 13.76, 21.08 16.55, 3.78 15.11 M72.67 15.11 C48.49 14.18, 23.51 15.12, 3.78 15.11 M3.78 15.11 C-0.66 13.21, 1.78 15.74, 0 11.33 M3.78 15.11 C1.61 17.07, -0.87 15.63, 0 11.33 M0 11.33 C0.6 8.14, 0.6 5.32, 0 3.78 M0 11.33 C0.35 8.7, -0.26 5.54, 0 3.78 M0 3.78 C-1.97 -0.61, 1.37 -0.08, 3.78 0 M0 3.78 C2.18 2.37, -0.79 0.67, 3.78 0" stroke="#1e1e1e" stroke-width="2" fill="none"></path></g><g stroke-linecap="round" transform="translate(453.77783881293414 502.6666598849824) rotate(0 38.222215440538235 7.555558946397582)"><path d="M3.78 0 C24.38 1.74, 44.73 1.67, 72.67 0 M3.78 0 C23.12 1.12, 41.39 0.45, 72.67 0 M72.67 0 C74.81 1.76, 74.6 -0.65, 76.44 3.78 M72.67 0 C73.13 -0.83, 76.47 -0.72, 76.44 3.78 M76.44 3.78 C76.62 6.11, 76.16 7.52, 76.44 11.33 M76.44 3.78 C76.35 5.72, 76.09 8.46, 76.44 11.33 M76.44 11.33 C77.87 14.26, 75.31 14.08, 72.67 15.11 M76.44 11.33 C78.48 14.92, 73 15.48, 72.67 15.11 M72.67 15.11 C50.19 16.18, 24.53 16.84, 3.78 15.11 M72.67 15.11 C54.87 15.91, 36.28 16.04, 3.78 15.11 M3.78 15.11 C1.78 14.98, -0.8 15.43, 0 11.33 M3.78 15.11 C3.46 17.15, -1.67 12.58, 0 11.33 M0 11.33 C0.6 9.88, -0.26 8.34, 0 3.78 M0 11.33 C-0.25 9.5, 0.37 7.87, 0 3.78 M0 3.78 C1.74 1.07, 2.19 0.95, 3.78 0 M0 3.78 C2.07 2.73, 0.09 -1.07, 3.78 0" stroke="#1e1e1e" stroke-width="2" fill="none"></path></g><g stroke-linecap="round" transform="translate(227.11117214626728 497.33334011501717) rotate(0 38.22221544053821 7.555558946397582)"><path d="M3.78 0 C31.02 1.38, 56.35 -1.42, 72.67 0 M3.78 0 C28.74 -0.1, 53.66 0.28, 72.67 0 M72.67 0 C73.29 0.2, 78.33 0.94, 76.44 3.78 M72.67 0 C75.11 2.07, 74.34 1.68, 76.44 3.78 M76.44 3.78 C77.11 6.53, 76.09 9.55, 76.44 11.33 M76.44 3.78 C76.78 5.15, 76.46 6.88, 76.44 11.33 M76.44 11.33 C75.12 14.8, 76.26 16.81, 72.67 15.11 M76.44 11.33 C74.6 13.78, 76.39 16.85, 72.67 15.11 M72.67 15.11 C58.26 12.46, 41.99 12.55, 3.78 15.11 M72.67 15.11 C51.23 16.19, 29.11 15.91, 3.78 15.11 M3.78 15.11 C2.9 13.67, 0.89 15.48, 0 11.33 M3.78 15.11 C-0.61 13.41, -0.42 12.16, 0 11.33 M0 11.33 C-0.79 8.9, 0.06 6.75, 0 3.78 M0 11.33 C0.15 9.17, 0.01 6.76, 0 3.78 M0 3.78 C-0.68 2.01, 0.61 1.48, 3.78 0 M0 3.78 C0.56 0.15, -1.04 1.75, 3.78 0" stroke="#1e1e1e" stroke-width="2" fill="none"></path></g><g stroke-linecap="round" transform="translate(227.3333401150175 522.444390190972) rotate(0 38.22221544053821 7.555558946397582)"><path d="M3.78 0 C20.36 -2.13, 39.26 -1.84, 72.67 0 M3.78 0 C30 0.55, 57.17 -0.28, 72.67 0 M72.67 0 C77.07 -0.32, 76.38 3.06, 76.44 3.78 M72.67 0 C73.08 0.42, 78.15 1.08, 76.44 3.78 M76.44 3.78 C76.17 6.7, 75.96 9.46, 76.44 11.33 M76.44 3.78 C76.52 5.37, 76.26 7.8, 76.44 11.33 M76.44 11.33 C77.52 15.56, 73.58 15.05, 72.67 15.11 M76.44 11.33 C77.65 15.59, 73.25 16.35, 72.67 15.11 M72.67 15.11 C57.95 12.56, 45.3 13.79, 3.78 15.11 M72.67 15.11 C46.1 15.8, 22.11 14.79, 3.78 15.11 M3.78 15.11 C2.15 16.74, -1.63 12.37, 0 11.33 M3.78 15.11 C0.84 13.42, 1.1 16.02, 0 11.33 M0 11.33 C0.21 9.36, 0.04 6.18, 0 3.78 M0 11.33 C-0.01 8.8, -0.16 6.62, 0 3.78 M0 3.78 C-0.65 2.74, 1.74 -0.96, 3.78 0 M0 3.78 C-2.3 3.01, 3.36 -2.2, 3.78 0" stroke="#1e1e1e" stroke-width="2" fill="none"></path></g><g stroke-linecap="round" transform="translate(10 364.6666632758244) rotate(0 6.222195095486136 5.777791341145843)"><path d="M7.05 0.02 C8.23 0.11, 9.14 0.95, 10.1 1.83 C11.07 2.7, 12.56 4.11, 12.85 5.26 C13.13 6.42, 12.56 7.72, 11.83 8.78 C11.1 9.83, 9.81 11.19, 8.46 11.58 C7.1 11.97, 5.07 11.68, 3.69 11.1 C2.32 10.51, 0.76 9.23, 0.2 8.07 C-0.36 6.9, -0.02 5.16, 0.33 4.09 C0.69 3.02, 1.35 2.35, 2.36 1.63 C3.36 0.92, 5.68 -0.05, 6.35 -0.23 C7.02 -0.4, 6.41 0.52, 6.38 0.6 M5.8 0.37 C6.93 0.25, 8.47 0.9, 9.5 1.55 C10.54 2.21, 11.71 3.14, 12.01 4.29 C12.31 5.44, 12.03 7.33, 11.32 8.43 C10.61 9.52, 8.87 10.48, 7.76 10.87 C6.65 11.26, 5.77 11.17, 4.66 10.77 C3.55 10.38, 1.99 9.39, 1.11 8.5 C0.22 7.61, -0.81 6.55, -0.67 5.45 C-0.53 4.35, 0.73 2.73, 1.95 1.91 C3.16 1.09, 5.87 0.89, 6.6 0.54 C7.34 0.18, 6.32 -0.34, 6.36 -0.21" stroke="#1e1e1e" stroke-width="2" fill="none"></path></g><g stroke-linecap="round" transform="translate(291.11107720269075 523.1110466851126) rotate(0 2.666659884982721 4.000032212999149)"><path d="M2.87 0.13 C3.44 -0.04, 4 0.12, 4.35 0.63 C4.69 1.14, 4.87 2.28, 4.95 3.18 C5.03 4.08, 4.99 5.29, 4.81 6.02 C4.63 6.76, 4.37 7.23, 3.87 7.57 C3.37 7.91, 2.39 8.27, 1.78 8.07 C1.17 7.88, 0.56 7.11, 0.22 6.4 C-0.12 5.69, -0.34 4.66, -0.25 3.82 C-0.16 2.97, 0.26 1.93, 0.77 1.32 C1.28 0.72, 2.5 0.34, 2.8 0.16 C3.11 -0.01, 2.64 0.18, 2.6 0.27 M2.74 -0.22 C3.2 -0.41, 3.46 -0.31, 3.87 0.24 C4.27 0.79, 4.89 2.15, 5.16 3.1 C5.43 4.05, 5.76 5.18, 5.5 5.95 C5.24 6.72, 4.25 7.34, 3.59 7.71 C2.93 8.08, 2.11 8.41, 1.53 8.16 C0.95 7.92, 0.36 6.93, 0.11 6.24 C-0.15 5.55, -0.15 4.86, 0 4.03 C0.16 3.2, 0.59 1.99, 1.05 1.28 C1.51 0.57, 2.55 -0.02, 2.74 -0.22 C2.94 -0.42, 2.3 -0.09, 2.22 0.06" stroke="#1e1e1e" stroke-width="2" fill="none"></path></g><g stroke-linecap="round" transform="translate(273.55546739366304 522.444390190972) rotate(0 2.666659884982721 4.000032212999149)"><path d="M2.13 -0.24 C2.7 -0.33, 3.89 0.08, 4.38 0.61 C4.87 1.14, 5.02 2.07, 5.09 2.94 C5.15 3.8, 4.99 5.07, 4.79 5.81 C4.58 6.56, 4.37 7.04, 3.87 7.41 C3.37 7.77, 2.31 8.21, 1.78 7.99 C1.25 7.77, 1.04 6.82, 0.71 6.08 C0.38 5.35, -0.2 4.41, -0.2 3.59 C-0.2 2.78, 0.31 1.77, 0.72 1.19 C1.13 0.61, 1.97 0.29, 2.27 0.12 C2.56 -0.05, 2.47 0.15, 2.48 0.17 M2.24 0.23 C2.9 0.01, 4.09 -0.25, 4.53 0.22 C4.97 0.68, 4.74 2.16, 4.9 3.02 C5.06 3.88, 5.69 4.65, 5.48 5.38 C5.28 6.11, 4.29 6.95, 3.67 7.38 C3.05 7.8, 2.32 8.13, 1.74 7.92 C1.15 7.72, 0.47 6.74, 0.14 6.13 C-0.2 5.52, -0.42 5.06, -0.28 4.26 C-0.14 3.46, 0.5 1.97, 0.96 1.34 C1.42 0.71, 2.31 0.76, 2.48 0.5 C2.65 0.24, 2.01 -0.14, 1.96 -0.23" stroke="#1e1e1e" stroke-width="2" fill="none"></path></g><g stroke-linecap="round" transform="translate(289.5554945203991 498.4443834092879) rotate(0 2.666659884982721 4.000032212999148)"><path d="M2.48 -0.25 C3.01 -0.36, 3.93 0.13, 4.43 0.77 C4.93 1.41, 5.41 2.68, 5.48 3.6 C5.54 4.51, 5.14 5.55, 4.83 6.25 C4.52 6.95, 4.11 7.58, 3.61 7.8 C3.11 8.03, 2.36 7.86, 1.85 7.59 C1.34 7.33, 0.92 6.9, 0.57 6.2 C0.23 5.5, -0.32 4.26, -0.2 3.38 C-0.08 2.51, 0.76 1.49, 1.29 0.95 C1.82 0.41, 2.71 0.28, 2.98 0.14 C3.25 0, 2.95 0.05, 2.93 0.11 M2.67 -0.33 C3.26 -0.26, 4.64 0.57, 5 1.18 C5.36 1.79, 4.87 2.42, 4.82 3.33 C4.77 4.23, 4.95 5.87, 4.73 6.61 C4.51 7.35, 3.98 7.55, 3.51 7.76 C3.05 7.98, 2.47 8.29, 1.94 7.92 C1.41 7.56, 0.65 6.38, 0.35 5.58 C0.06 4.79, -0.02 3.89, 0.17 3.15 C0.36 2.4, 1.02 1.62, 1.49 1.1 C1.97 0.58, 2.86 0.1, 3.01 0.01 C3.16 -0.08, 2.48 0.57, 2.41 0.58" stroke="#1e1e1e" stroke-width="2" fill="none"></path></g><g stroke-linecap="round" transform="translate(271.11107720269075 497.7777438693574) rotate(0 2.666659884982721 4.000032212999148)"><path d="M2.98 -0.16 C3.59 -0.04, 4.4 0.8, 4.77 1.49 C5.13 2.17, 5.17 3.13, 5.19 3.95 C5.21 4.77, 5.17 5.76, 4.87 6.39 C4.58 7.02, 3.95 7.49, 3.42 7.73 C2.9 7.96, 2.29 8.15, 1.72 7.82 C1.15 7.49, 0.2 6.54, -0.02 5.73 C-0.23 4.91, 0.2 3.75, 0.43 2.93 C0.67 2.11, 0.96 1.3, 1.4 0.82 C1.85 0.34, 2.83 0.16, 3.12 0.06 C3.41 -0.04, 3.16 0.15, 3.16 0.23 M2.82 0.08 C3.31 -0.05, 3.25 -0.13, 3.62 0.39 C4 0.91, 4.8 2.36, 5.07 3.21 C5.34 4.05, 5.37 4.71, 5.24 5.48 C5.1 6.25, 4.75 7.46, 4.24 7.83 C3.72 8.21, 2.75 7.95, 2.15 7.73 C1.55 7.51, 0.91 7.12, 0.62 6.52 C0.33 5.92, 0.35 5, 0.39 4.13 C0.44 3.25, 0.62 1.87, 0.87 1.27 C1.12 0.67, 1.7 0.77, 1.9 0.52 C2.11 0.28, 2.06 -0.11, 2.09 -0.2" stroke="#1e1e1e" stroke-width="2" fill="none"></path></g><g stroke-linecap="round" transform="translate(287.77767605251717 477.1110704210067) rotate(0 2.666659884982721 4.000032212999148)"><path d="M2.87 -0.3 C3.45 -0.32, 4.39 0.44, 4.75 1.05 C5.1 1.65, 5 2.48, 5.01 3.31 C5.02 4.15, 5.04 5.35, 4.83 6.04 C4.61 6.74, 4.17 7.23, 3.7 7.48 C3.23 7.74, 2.52 7.81, 2.01 7.57 C1.5 7.33, 1.01 6.72, 0.65 6.04 C0.29 5.36, -0.18 4.39, -0.13 3.49 C-0.07 2.59, 0.48 1.19, 0.96 0.66 C1.44 0.14, 2.46 0.4, 2.75 0.32 C3.05 0.23, 2.76 0.11, 2.72 0.15 M2.57 0.06 C3.16 0.02, 4.07 0.54, 4.48 1.04 C4.89 1.53, 5.02 2.2, 5.04 3.01 C5.05 3.82, 4.91 5.09, 4.57 5.89 C4.22 6.69, 3.53 7.52, 2.96 7.82 C2.4 8.12, 1.59 7.93, 1.18 7.68 C0.78 7.43, 0.75 7.02, 0.52 6.32 C0.3 5.63, -0.21 4.5, -0.18 3.5 C-0.14 2.51, 0.33 0.98, 0.76 0.33 C1.18 -0.31, 1.96 -0.37, 2.38 -0.38 C2.8 -0.4, 3.26 0.06, 3.25 0.26" stroke="#1e1e1e" stroke-width="2" fill="none"></path></g><g stroke-linecap="round" transform="translate(273.55553521050325 477.99997965494765) rotate(0 2.666659884982721 4.000032212999148)"><path d="M2.94 0.02 C3.44 -0.01, 3.89 0.38, 4.28 0.91 C4.67 1.44, 5.19 2.3, 5.28 3.19 C5.36 4.08, 5.02 5.44, 4.77 6.24 C4.52 7.04, 4.24 7.71, 3.77 8 C3.29 8.29, 2.47 8.31, 1.94 7.97 C1.42 7.63, 0.9 6.76, 0.64 5.96 C0.37 5.16, 0.28 4.03, 0.35 3.16 C0.43 2.3, 0.66 1.33, 1.09 0.77 C1.52 0.22, 2.6 -0.07, 2.91 -0.17 C3.22 -0.28, 2.94 0.09, 2.97 0.14 M2.43 0.03 C3.05 -0.04, 4.21 0.23, 4.66 0.71 C5.11 1.2, 5.07 2.02, 5.13 2.95 C5.19 3.88, 5.24 5.43, 5.02 6.29 C4.81 7.16, 4.35 7.81, 3.84 8.15 C3.33 8.48, 2.44 8.62, 1.95 8.3 C1.47 7.98, 1.3 7.11, 0.92 6.23 C0.54 5.35, -0.3 3.91, -0.32 3.03 C-0.34 2.15, 0.24 1.49, 0.79 0.95 C1.35 0.4, 2.76 -0.15, 3 -0.26 C3.23 -0.37, 2.29 0.21, 2.2 0.29" stroke="#1e1e1e" stroke-width="2" fill="none"></path></g><g transform="translate(219.77779812282978 546.8888346354164) rotate(0 53.489967346191406 12.5)"><text x="0" y="0" font-family="Virgil, Segoe UI Emoji" font-size="20px" fill="#1e1e1e" text-anchor="start" style="white-space: pre;" direction="ltr" dominant-baseline="text-before-edge">10,349,405</text></g><g transform="translate(216.2222290039062 572.6667955186629) rotate(0 58.60993957519531 12.5)"><text x="0" y="0" font-family="Virgil, Segoe UI Emoji" font-size="20px" fill="#1e1e1e" text-anchor="start" style="white-space: pre;" direction="ltr" dominant-baseline="text-before-edge">Deployments</text></g><g stroke-linecap="round"><g transform="translate(496.6708956914447 502.4444495307074) rotate(0 1.10901355293214 -14.222221374511719)"><path d="M0.23 -0.47 C0.55 -5.28, 1.69 -23.71, 2.06 -28.43 M-0.31 0.48 C-0.1 -4.28, 1.12 -22.92, 1.55 -27.72" stroke="#1e1e1e" stroke-width="2" fill="none"></path></g><g transform="translate(496.6708956914447 502.4444495307074) rotate(0 1.10901355293214 -14.222221374511719)"><path d="M5.41 -13.99 C3.45 -18.76, 2.8 -22.8, 1.55 -27.72 M5.41 -13.99 C4.64 -17.04, 3.19 -20.92, 1.55 -27.72" stroke="#1e1e1e" stroke-width="2" fill="none"></path></g><g transform="translate(496.6708956914447 502.4444495307074) rotate(0 1.10901355293214 -14.222221374511719)"><path d="M-4.32 -14.72 C-3.03 -19.27, -0.43 -23.07, 1.55 -27.72 M-4.32 -14.72 C-2.72 -17.61, -1.8 -21.32, 1.55 -27.72" stroke="#1e1e1e" stroke-width="2" fill="none"></path></g></g><mask></mask><g transform="translate(453.5556030273435 531.7777506510415) rotate(0 39.42997741699219 25)"><text x="0" y="0" font-family="Virgil, Segoe UI Emoji" font-size="20px" fill="#1e1e1e" text-anchor="start" style="white-space: pre;" direction="ltr" dominant-baseline="text-before-edge">987 TB</text><text x="0" y="25" font-family="Virgil, Segoe UI Emoji" font-size="20px" fill="#1e1e1e" text-anchor="start" style="white-space: pre;" direction="ltr" dominant-baseline="text-before-edge"></text></g><g transform="translate(448.22221544053815 569.1111246744791) rotate(0 43.719947814941435 12.5)"><text x="0" y="0" font-family="Virgil, Segoe UI Emoji" font-size="20px" fill="#1e1e1e" text-anchor="start" style="white-space: pre;" direction="ltr" dominant-baseline="text-before-edge">Published</text></g><g stroke-linecap="round" transform="translate(705.1111857096353 475.7777828640407) rotate(0 8.444451226128479 6.222220526801209)"><path d="M3.11 0 C6.45 -0.38, 10.78 0.01, 13.78 0 M3.11 0 C5.32 -0.1, 7.67 0, 13.78 0 M13.78 0 C15.87 0.26, 16.61 1.48, 16.89 3.11 M13.78 0 C16.7 0.58, 17.23 0.54, 16.89 3.11 M16.89 3.11 C16.87 4.77, 16.89 7.16, 16.89 9.33 M16.89 3.11 C16.93 5.47, 17.04 8.09, 16.89 9.33 M16.89 9.33 C17.36 11.6, 15.77 12.6, 13.78 12.44 M16.89 9.33 C15.86 12.36, 16.43 12.84, 13.78 12.44 M13.78 12.44 C11.97 12.63, 9.2 12.17, 3.11 12.44 M13.78 12.44 C10.98 12.35, 8.01 12.58, 3.11 12.44 M3.11 12.44 C0.11 11.92, -0.59 11.62, 0 9.33 M3.11 12.44 C1.3 12.7, 0.67 11.85, 0 9.33 M0 9.33 C0.04 7.5, 0.15 5.62, 0 3.11 M0 9.33 C-0.02 7.01, 0.1 4.54, 0 3.11 M0 3.11 C-0.7 1.17, 0.56 0.78, 3.11 0 M0 3.11 C-0.27 0.59, 2.11 -0.11, 3.11 0" stroke="#1e1e1e" stroke-width="2" fill="none"></path></g><g stroke-linecap="round" transform="translate(753.3334011501737 476.00001017252595) rotate(0 8.444451226128479 6.222220526801209)"><path d="M3.11 0 C5.76 0.14, 6.99 0.08, 13.78 0 M3.11 0 C6.05 0, 8.72 -0.01, 13.78 0 M13.78 0 C14.95 0.83, 17.39 1.38, 16.89 3.11 M13.78 0 C14.75 0.3, 16.79 1.84, 16.89 3.11 M16.89 3.11 C16.81 5.25, 16.98 7.5, 16.89 9.33 M16.89 3.11 C16.77 4.64, 16.82 6.37, 16.89 9.33 M16.89 9.33 C17.12 11.63, 16.44 12.83, 13.78 12.44 M16.89 9.33 C16.78 11.44, 15.62 12.58, 13.78 12.44 M13.78 12.44 C11.18 12.51, 7.89 12.37, 3.11 12.44 M13.78 12.44 C9.5 12.52, 5.48 12.69, 3.11 12.44 M3.11 12.44 C0.8 12.06, 0.93 11.31, 0 9.33 M3.11 12.44 C1.36 12.96, -0.95 12.27, 0 9.33 M0 9.33 C-0.21 7.17, 0.28 4.37, 0 3.11 M0 9.33 C-0.14 8.15, 0.14 6.52, 0 3.11 M0 3.11 C-0.48 0.11, 1.95 0.46, 3.11 0 M0 3.11 C-0.53 0.04, 0.82 0.94, 3.11 0" stroke="#1e1e1e" stroke-width="2" fill="none"></path></g><g stroke-linecap="round" transform="translate(734.0001085069442 518.0000135633679) rotate(0 8.444451226128479 6.222220526801209)"><path d="M3.11 0 C6.26 0.09, 10.19 0.47, 13.78 0 M3.11 0 C7.34 0.03, 11.38 0.21, 13.78 0 M13.78 0 C16.35 0.34, 15.93 1.29, 16.89 3.11 M13.78 0 C15.75 0.81, 17.29 0.57, 16.89 3.11 M16.89 3.11 C16.99 4.88, 16.76 6.45, 16.89 9.33 M16.89 3.11 C16.77 5.28, 16.9 7.43, 16.89 9.33 M16.89 9.33 C17.47 11.8, 15.75 12.47, 13.78 12.44 M16.89 9.33 C16.66 11.54, 15.75 13, 13.78 12.44 M13.78 12.44 C11.24 12.4, 8.53 12.81, 3.11 12.44 M13.78 12.44 C9.66 12.66, 5.73 12.35, 3.11 12.44 M3.11 12.44 C1.97 12.35, 0.28 11.85, 0 9.33 M3.11 12.44 C0.09 13.31, 1.08 11.66, 0 9.33 M0 9.33 C0.3 7, -0.25 4.96, 0 3.11 M0 9.33 C0.18 6.75, -0.05 4.32, 0 3.11 M0 3.11 C0.92 1.5, 0.57 -0.87, 3.11 0 M0 3.11 C-0.21 1.98, 1.12 0.23, 3.11 0" stroke="#1e1e1e" stroke-width="2" fill="none"></path></g><g stroke-linecap="round"><g transform="translate(724.6666463216144 482.8888956705728) rotate(0 9.777832031250114 0)"><path d="M-0.24 0.02 C2.99 0.08, 16.61 0.08, 19.83 0.05 M0.63 -0.44 C3.78 -0.26, 16.29 0.64, 19.53 0.78" stroke="#1e1e1e" stroke-width="2" fill="none"></path></g></g><mask></mask><g stroke-linecap="round"><g transform="translate(717.7778116861979 488.4444512261284) rotate(0 8.444485134548586 12.444441053602418)"><path d="M0.43 0.69 C3 4.91, 13.3 21.01, 16.1 24.91 M-0.81 0.01 C2.1 4.46, 15.49 22.3, 18.4 26.46" stroke="#1e1e1e" stroke-width="2" fill="none"></path></g></g><mask></mask><g transform="translate(659.7778659396703 531.7777845594618) rotate(0 51.97996520996094 25)"><text x="0" y="0" font-family="Virgil, Segoe UI Emoji" font-size="20px" fill="#1e1e1e" text-anchor="start" style="white-space: pre;" direction="ltr" dominant-baseline="text-before-edge">2,343,265</text><text x="0" y="25" font-family="Virgil, Segoe UI Emoji" font-size="20px" fill="#1e1e1e" text-anchor="start" style="white-space: pre;" direction="ltr" dominant-baseline="text-before-edge"></text></g><g transform="translate(681.1111450195311 575.3333197699652) rotate(0 41.299957275390625 12.5)"><text x="0" y="0" font-family="Virgil, Segoe UI Emoji" font-size="20px" fill="#1e1e1e" text-anchor="start" style="white-space: pre;" direction="ltr" dominant-baseline="text-before-edge">Projects</text></g><g transform="translate(275.77782524956586 387.7958781189126) rotate(0 209.27484130859372 25.797975750550847)"><text x="0" y="0" font-family="Virgil, Segoe UI Emoji" font-size="13.758920400293782px" fill="#1e1e1e" text-anchor="start" style="white-space: pre;" direction="ltr" dominant-baseline="text-before-edge">Welcome to the best platform for building applications of all </text><text x="0" y="17.19865050036723" font-family="Virgil, Segoe UI Emoji" font-size="13.758920400293782px" fill="#1e1e1e" text-anchor="start" style="white-space: pre;" direction="ltr" dominant-baseline="text-before-edge">        types with modern architecture and scaling</text><text x="0" y="34.39730100073446" font-family="Virgil, Segoe UI Emoji" font-size="13.758920400293782px" fill="#1e1e1e" text-anchor="start" style="white-space: pre;" direction="ltr" dominant-baseline="text-before-edge"></text></g><g stroke-linecap="round" transform="translate(140.66667344835054 21.1111111111112) rotate(0 338.22224934895837 176.88888549804688)"><path d="M32 0 C202.04 -4.5, 367.95 -3.97, 644.44 0 C668.7 -2.12, 676.31 10.43, 676.44 32 C669.99 138.28, 673.67 239.49, 676.44 321.78 C679.04 342.18, 665.84 355.39, 644.44 353.78 C467.7 358.24, 290.75 356.7, 32 353.78 C11.88 351.49, -0.93 346.39, 0 321.78 C-1.64 223.47, 0.27 123.71, 0 32 C-0.16 11.87, 11.7 0.22, 32 0" stroke="none" stroke-width="0" fill="#a5d8ff"></path><path d="M32 0 C241 1.29, 449.92 2.16, 644.44 0 M32 0 C220.59 -1.15, 409.01 -0.74, 644.44 0 M644.44 0 C666.08 0.07, 676.89 9.68, 676.44 32 M644.44 0 C666.41 -1.21, 676.64 9.53, 676.44 32 M676.44 32 C678.32 142.42, 678.27 250.1, 676.44 321.78 M676.44 32 C675.39 123.25, 675.24 214.3, 676.44 321.78 M676.44 321.78 C678.14 343.74, 667.67 353.23, 644.44 353.78 M676.44 321.78 C676.6 344.44, 665.81 355.25, 644.44 353.78 M644.44 353.78 C399.42 355.73, 154.69 355.02, 32 353.78 M644.44 353.78 C436.44 354.92, 228.17 354.89, 32 353.78 M32 353.78 C11.89 355.46, -1.76 344.63, 0 321.78 M32 353.78 C11.72 353.12, 0.32 345.37, 0 321.78 M0 321.78 C1.09 258.79, 2.32 198.51, 0 32 M0 321.78 C0.75 222.58, 0.14 125.36, 0 32 M0 32 C-0.17 10.67, 11.45 0.58, 32 0 M0 32 C1.89 11.37, 10.95 0.28, 32 0" stroke="#1e1e1e" stroke-width="2" fill="none"></path></g><g transform="translate(160.22220187717 32.66665988498272) rotate(0 31.309967041015625 12.5)"><text x="0" y="0" font-family="Virgil, Segoe UI Emoji" font-size="20px" fill="#1e1e1e" text-anchor="start" style="white-space: pre;" direction="ltr" dominant-baseline="text-before-edge">Loruki.</text></g><g transform="translate(567.3333401150172 30.888875325520928) rotate(0 22.8499755859375 12.5)"><text x="0" y="0" font-family="Virgil, Segoe UI Emoji" font-size="20px" fill="#1e1e1e" text-anchor="start" style="white-space: pre;" direction="ltr" dominant-baseline="text-before-edge">Home</text></g><g transform="translate(629.5555623372396 32.66669379340283) rotate(0 44.40995788574219 12.5)"><text x="0" y="0" font-family="Virgil, Segoe UI Emoji" font-size="20px" fill="#1e1e1e" text-anchor="start" style="white-space: pre;" direction="ltr" dominant-baseline="text-before-edge">Features</text></g><g transform="translate(727.3333401150172 30.88889227973101) rotate(0 23.78997802734375 12.5)"><text x="0" y="0" font-family="Virgil, Segoe UI Emoji" font-size="20px" fill="#1e1e1e" text-anchor="start" style="white-space: pre;" direction="ltr" dominant-baseline="text-before-edge">Docs</text></g><g stroke-linecap="round" transform="translate(555.7777574327257 79.77776421440979) rotate(0 112.88892957899304 137.33334011501734)"><path d="M32 0 C93.65 -0.52, 159.99 -2.65, 193.78 0 M32 0 C74.13 -1.06, 116.47 -1.81, 193.78 0 M193.78 0 C215.98 1.14, 226.94 8.95, 225.78 32 M193.78 0 C214.66 -0.67, 225.46 12.52, 225.78 32 M225.78 32 C225.98 97.94, 225.82 165.35, 225.78 242.67 M225.78 32 C225.34 104.04, 225.74 174.86, 225.78 242.67 M225.78 242.67 C227.21 265.57, 216.25 275.46, 193.78 274.67 M225.78 242.67 C224.83 265.06, 213.17 275.06, 193.78 274.67 M193.78 274.67 C141.06 272.15, 89.58 272.51, 32 274.67 M193.78 274.67 C151 274.84, 108.84 275.9, 32 274.67 M32 274.67 C12.05 275.26, 0.89 262.6, 0 242.67 M32 274.67 C10.48 276.64, -1.29 265.14, 0 242.67 M0 242.67 C1.68 163.69, 2.25 79.92, 0 32 M0 242.67 C-0.13 177.95, -0.33 114.46, 0 32 M0 32 C0.75 9.46, 9.6 1.91, 32 0 M0 32 C-0.63 9.18, 10.05 0.35, 32 0" stroke="#1e1e1e" stroke-width="2" fill="none"></path></g><g transform="translate(583.3332316080727 96.66664971245666) rotate(0 81.74993896484375 25)"><text x="0" y="0" font-family="Virgil, Segoe UI Emoji" font-size="20px" fill="#1e1e1e" text-anchor="start" style="white-space: pre;" direction="ltr" dominant-baseline="text-before-edge">Request a Demo</text><text x="0" y="25" font-family="Virgil, Segoe UI Emoji" font-size="20px" fill="#1e1e1e" text-anchor="start" style="white-space: pre;" direction="ltr" dominant-baseline="text-before-edge"></text></g><g transform="translate(580.6667412651908 113.55553521050359) rotate(0 24.90998077392578 37.5)"><text x="0" y="0" font-family="Virgil, Segoe UI Emoji" font-size="20px" fill="#1e1e1e" text-anchor="start" style="white-space: pre;" direction="ltr" dominant-baseline="text-before-edge"></text><text x="0" y="25" font-family="Virgil, Segoe UI Emoji" font-size="20px" fill="#1e1e1e" text-anchor="start" style="white-space: pre;" direction="ltr" dominant-baseline="text-before-edge">Name</text><text x="0" y="50" font-family="Virgil, Segoe UI Emoji" font-size="20px" fill="#1e1e1e" text-anchor="start" style="white-space: pre;" direction="ltr" dominant-baseline="text-before-edge"></text></g><g stroke-linecap="round"><g transform="translate(572.6666598849826 168.6666531032987) rotate(0 88.00004747178832 1.777784559461793)"><path d="M-0.35 1.03 C29.14 1.74, 147.57 3.9, 177.07 4.27 M1.66 0.53 C31.09 0.89, 147.6 1.87, 176.68 2.53" stroke="#1e1e1e" stroke-width="2" fill="none"></path></g></g><mask></mask><g stroke-linecap="round"><g transform="translate(568.4443834092882 223.11109754774316) rotate(0 88.00004747178832 0.44445461697048927)"><path d="M-0.19 -1.19 C29.33 -0.82, 147.18 1.46, 176.72 1.99 M-1.75 0.8 C27.72 0.89, 146.38 0.53, 176.15 0.44" stroke="#1e1e1e" stroke-width="2" fill="none"></path></g></g><mask></mask><g stroke-linecap="round"><g transform="translate(566.8888007269965 262.4444919162328) rotate(0 88.00004747178832 0.44445461697048927)"><path d="M-0.9 0.3 C28.59 0.36, 147 1.48, 176.61 1.42 M0.83 -0.59 C30.24 -0.37, 146.72 -0.65, 175.98 -0.43" stroke="#1e1e1e" stroke-width="2" fill="none"></path></g></g><mask></mask><g transform="translate(574.4444783528644 163.33333333333343) rotate(0 69.17994689941406 37.5)"><text x="0" y="0" font-family="Virgil, Segoe UI Emoji" font-size="20px" fill="#1e1e1e" text-anchor="start" style="white-space: pre;" direction="ltr" dominant-baseline="text-before-edge"></text><text x="0" y="25" font-family="Virgil, Segoe UI Emoji" font-size="20px" fill="#1e1e1e" text-anchor="start" style="white-space: pre;" direction="ltr" dominant-baseline="text-before-edge">Company Name</text><text x="0" y="50" font-family="Virgil, Segoe UI Emoji" font-size="20px" fill="#1e1e1e" text-anchor="start" style="white-space: pre;" direction="ltr" dominant-baseline="text-before-edge"></text></g><g transform="translate(572.6666598849826 211.33334689670147) rotate(0 24.559982299804688 37.5)"><text x="0" y="0" font-family="Virgil, Segoe UI Emoji" font-size="20px" fill="#1e1e1e" text-anchor="start" style="white-space: pre;" direction="ltr" dominant-baseline="text-before-edge"></text><text x="0" y="25" font-family="Virgil, Segoe UI Emoji" font-size="20px" fill="#1e1e1e" text-anchor="start" style="white-space: pre;" direction="ltr" dominant-baseline="text-before-edge">Email</text><text x="0" y="50" font-family="Virgil, Segoe UI Emoji" font-size="20px" fill="#1e1e1e" text-anchor="start" style="white-space: pre;" direction="ltr" dominant-baseline="text-before-edge"></text></g><g stroke-linecap="round" transform="translate(568.2222154405382 288.66665310329864) rotate(0 49.777798122829836 19.11114162868924)"><path d="M9.56 0 C26.5 4.35, 42.83 0.38, 90 0 C98.58 2.24, 96.16 2.37, 99.56 9.56 C102.11 17.17, 100.81 15.92, 99.56 28.67 C98.11 32.95, 98.14 35.79, 90 38.22 C63.76 35.71, 39.69 37.85, 9.56 38.22 C3.42 41.62, 2.96 33.45, 0 28.67 C-0.5 26.88, -0.71 16.04, 0 9.56 C-2.44 2.67, 5.02 0.57, 9.56 0" stroke="none" stroke-width="0" fill="#a5d8ff"></path><path d="M9.56 0 C32.61 -0.76, 52.06 2.22, 90 0 M9.56 0 C33.5 0.54, 57.56 0.47, 90 0 M90 0 C94.7 0.58, 99.24 3.38, 99.56 9.56 M90 0 C96.97 -0.08, 98.11 3.6, 99.56 9.56 M99.56 9.56 C98.14 12.55, 100.98 18.02, 99.56 28.67 M99.56 9.56 C98.64 14.67, 100.02 21.91, 99.56 28.67 M99.56 28.67 C98.57 33.7, 94.46 36.66, 90 38.22 M99.56 28.67 C98.55 35.34, 98.29 40.12, 90 38.22 M90 38.22 C68.52 39.85, 45.69 39.49, 9.56 38.22 M90 38.22 C69.65 38.97, 48.41 39.02, 9.56 38.22 M9.56 38.22 C2.11 38.26, 0.05 34.24, 0 28.67 M9.56 38.22 C3.95 39.92, 0.65 35.85, 0 28.67 M0 28.67 C-0.51 21.15, -0.05 13.97, 0 9.56 M0 28.67 C0.05 23.64, 0.81 17.32, 0 9.56 M0 9.56 C-1.78 5.16, 2.76 -0.04, 9.56 0 M0 9.56 C2.15 1.35, 2.94 -1.35, 9.56 0" stroke="#1e1e1e" stroke-width="2" fill="none"></path></g><g transform="translate(596.0900327894423 295.2777947319879) rotate(0 21.90998077392578 12.5)"><text x="21.90998077392578" y="0" font-family="Virgil, Segoe UI Emoji" font-size="20px" fill="#1e1e1e" text-anchor="middle" style="white-space: pre;" direction="ltr" dominant-baseline="text-before-edge">Send</text></g><g transform="translate(178.4444512261283 127.77774386935778) rotate(0 88.97991943359375 12.5)"><text x="0" y="0" font-family="Virgil, Segoe UI Emoji" font-size="20px" fill="#1e1e1e" text-anchor="start" style="white-space: pre;" direction="ltr" dominant-baseline="text-before-edge">Easier Deployment</text></g><g transform="translate(163.3332655164931 166.11994002260673) rotate(0 186.09076944986973 10.89576351747175)"><text x="0" y="0" font-family="Virgil, Segoe UI Emoji" font-size="8.716610813977388px" fill="#1e1e1e" text-anchor="start" style="white-space: pre;" direction="ltr" dominant-baseline="text-before-edge">Deploy web apps of all kinds, from large scale enterprise APIs to static websites for</text><text x="0" y="10.895763517471735" font-family="Virgil, Segoe UI Emoji" font-size="8.716610813977388px" fill="#1e1e1e" text-anchor="start" style="white-space: pre;" direction="ltr" dominant-baseline="text-before-edge"> individuals. Fill out the form to try a demo of our platform</text></g><g stroke-linecap="round" transform="translate(173.55560302734358 274.44441053602435) rotate(0 70.6666395399306 34.222259521484375)"><path d="M17.11 0 C46.51 -3.95, 77.71 2.34, 124.22 0 C132.6 -2.26, 143.68 6.19, 141.33 17.11 C145.42 29.36, 139.76 41.27, 141.33 51.33 C143.1 61.65, 134.71 66.57, 124.22 68.44 C91.71 67.31, 65.75 69.28, 17.11 68.44 C2.42 68.69, -2.8 61.56, 0 51.33 C3 36.67, 1.84 22.6, 0 17.11 C-0.03 2.96, 4.34 3.59, 17.11 0" stroke="none" stroke-width="0" fill="#a5d8ff"></path><path d="M17.11 0 C45.92 1.27, 78.38 -0.11, 124.22 0 M17.11 0 C45.5 0.73, 72.12 0.38, 124.22 0 M124.22 0 C135.95 1.44, 140.18 6.59, 141.33 17.11 M124.22 0 C136.07 1.13, 141.59 3.84, 141.33 17.11 M141.33 17.11 C143.47 29.53, 140.37 38.62, 141.33 51.33 M141.33 17.11 C141.83 25.28, 141.72 35.72, 141.33 51.33 M141.33 51.33 C141.45 63.59, 134.99 67.83, 124.22 68.44 M141.33 51.33 C139.11 63.16, 133.93 70.73, 124.22 68.44 M124.22 68.44 C85.45 68.1, 43.5 68.6, 17.11 68.44 M124.22 68.44 C98.78 69.63, 72.44 70.02, 17.11 68.44 M17.11 68.44 C4.46 67.45, 0.21 63.39, 0 51.33 M17.11 68.44 C5.4 69.05, 1.45 64.81, 0 51.33 M0 51.33 C0.79 43.53, -0.72 35.38, 0 17.11 M0 51.33 C0.57 37.33, 0.58 25.45, 0 17.11 M0 17.11 C0.94 5.64, 4.02 0.52, 17.11 0 M0 17.11 C-0.67 3.75, 6.19 0.85, 17.11 0" stroke="#1e1e1e" stroke-width="2" fill="none"></path></g><g transform="translate(189.55556233723956 293.11116536458337) rotate(0 52.57996368408203 12.5)"><text x="0" y="0" font-family="Virgil, Segoe UI Emoji" font-size="20px" fill="#1e1e1e" text-anchor="start" style="white-space: pre;" direction="ltr" dominant-baseline="text-before-edge">Read More</text></g></svg>